<svg xmlns="http://www.w3.org/2000/svg" viewBox="0 0 104 64">
  <path fill="#2E77BC" d="M104,56c0,4.4-3.6,8-8,8H8c-4.4,0-8-3.6-8-8V8c0-4.4,3.6-8,8-8h88c4.4,0,8,3.6,8,8V56z"/>
  <path fill="#FFFFFF" d="M54.6,29.3l1.9-4.5l1.9,4.5H54.6z M82.6,24.7h-4.1v-3.9h4.2v-3h-7.9v17.5h7.9v-3h-4.2v-4.3h4.1V24.7z M72.7,17.8 l-3.1,7.4l-3.1-7.4h-4.1v16.9l-4.4-16.9h-3.5L50,34.7h3.1l1.1-3.3h5.4l1.1,3.3h5.7V21.6l3.4,8.2h2.3l3.4-8.2v13.1h3.3V17.8H72.7z M38.2,24.7h-4.1v-3.9h4.2v-3h-7.9v17.5h7.9v-3h-4.2v-4.3h4.1V24.7z M27.6,28.2c0-3.8-2.4-6.1-6.3-6.1h-6.9v17.5h3.7v-6.4h2.4 l3.7,6.4h4.1l-4.1-6.7C26.6,32,27.6,30.4,27.6,28.2z M20.6,30.3h-2.5v-5.3h2.5c1.7,0,2.8,0.9,2.8,2.7C23.4,29.4,22.3,30.3,20.6,30.3z"/>
</svg>
