<svg xmlns="http://www.w3.org/2000/svg" viewBox="0 0 1000 324.68">
  <path fill="#1434CB" d="M651.19,0,576.47,324.68h120l74.72-324.68Z"/>
  <path fill="#1434CB" d="M432.29,0,353.22,221.48l-17-86.23a159.5,159.5,0,0,0-75.19-99.46L337.47,324.67h120.8L580.59,0Z"/>
  <path fill="#F7B600" d="M236.58,0H34.1L33,6.88C180,43.82,284.55,134.68,331,221.48L294.61,35.77C288.89,13.59,272.85,1.89,236.58,0Z"/>
  <path fill="#1434CB" d="M818.92,0c-28.54,0-56.45,13.24-68.28,34.39L651.19,324.68h120L832,65.35l7.55,36.87h55.51l-11.33-49C876.14,21.89,853.32,0,818.92,0Z"/>
  <path fill="#1434CB" d="M950.67,102.22,907.75,324.68h114.32L1000,102.22Z"/>
</svg>
